<?xml version="1.0" encoding="UTF-8" standalone="no"?><svg xmlns="http://www.w3.org/2000/svg" xmlns:xlink="http://www.w3.org/1999/xlink" contentStyleType="text/css" height="258px" preserveAspectRatio="none" style="width:401px;height:258px;background:#FFFFFF;" version="1.1" viewBox="0 0 401 258" width="401px" zoomAndPan="magnify"><defs/><g><rect height="26.4883" style="stroke:#00000000;stroke-width:1.0;fill:none;" width="371" x="8" y="5"/><text fill="#000000" font-family="sans-serif" font-size="14" font-weight="bold" lengthAdjust="spacing" textLength="361" x="13" y="23.5352">Diagrama de Classes - CG_N2_OpenTK_NAO_Usar</text><!--MD5=[919386ce46a6a5a7c71af782f732246a]
class Mundo--><g id="elem_Mundo"><rect codeLine="1" fill="#F1F1F1" height="64.4883" id="Mundo" rx="2.5" ry="2.5" style="stroke:#181818;stroke-width:0.5;" width="218" x="7" y="168.4883"/><ellipse cx="87.75" cy="184.4883" fill="#ADD1B2" rx="11" ry="11" style="stroke:#181818;stroke-width:1.0;"/><path d="M90.2231,190.6313 Q89.6421,190.9302 89.0029,191.0796 Q88.3638,191.229 87.6582,191.229 Q85.1514,191.229 83.8315,189.5771 Q82.5117,187.9253 82.5117,184.8042 Q82.5117,181.6748 83.8315,180.0229 Q85.1514,178.3711 87.6582,178.3711 Q88.3638,178.3711 89.0112,178.5205 Q89.6587,178.6699 90.2231,178.9688 L90.2231,181.6914 Q89.5923,181.1104 88.9988,180.8406 Q88.4053,180.5708 87.7744,180.5708 Q86.4297,180.5708 85.7449,181.6375 Q85.0601,182.7041 85.0601,184.8042 Q85.0601,186.896 85.7449,187.9626 Q86.4297,189.0293 87.7744,189.0293 Q88.4053,189.0293 88.9988,188.7595 Q89.5923,188.4897 90.2231,187.9087 Z " fill="#000000"/><text fill="#000000" font-family="sans-serif" font-size="14" lengthAdjust="spacing" textLength="48" x="108.25" y="189.7793">Mundo</text><line style="stroke:#181818;stroke-width:0.5;" x1="8" x2="224" y1="200.4883" y2="200.4883"/><line style="stroke:#181818;stroke-width:0.5;" x1="8" x2="224" y1="208.4883" y2="208.4883"/><ellipse cx="18" cy="219.4883" fill="#84BE84" rx="3" ry="3" style="stroke:#038048;stroke-width:1.0;"/><text fill="#000000" font-family="sans-serif" font-size="14" lengthAdjust="spacing" textLength="192" x="27" y="226.0234">Mundo(width:int, height:int)</text></g><!--MD5=[175f95e045c1a44aed0b30df3abe0e5c]
class Program--><g id="elem_Program"><rect codeLine="4" fill="#F1F1F1" height="64.4883" id="Program" rx="2.5" ry="2.5" style="stroke:#181818;stroke-width:0.5;" width="180" x="214" y="44.4883"/><ellipse cx="270.25" cy="60.4883" fill="#ADD1B2" rx="11" ry="11" style="stroke:#181818;stroke-width:1.0;"/><path d="M272.7231,66.6313 Q272.1421,66.9302 271.5029,67.0796 Q270.8638,67.229 270.1582,67.229 Q267.6514,67.229 266.3315,65.5771 Q265.0117,63.9253 265.0117,60.8042 Q265.0117,57.6748 266.3315,56.0229 Q267.6514,54.3711 270.1582,54.3711 Q270.8638,54.3711 271.5112,54.5205 Q272.1587,54.6699 272.7231,54.9688 L272.7231,57.6914 Q272.0923,57.1104 271.4988,56.8406 Q270.9053,56.5708 270.2744,56.5708 Q268.9297,56.5708 268.2449,57.6375 Q267.5601,58.7041 267.5601,60.8042 Q267.5601,62.896 268.2449,63.9626 Q268.9297,65.0293 270.2744,65.0293 Q270.9053,65.0293 271.4988,64.7595 Q272.0923,64.4897 272.7231,63.9087 Z " fill="#000000"/><text fill="#000000" font-family="sans-serif" font-size="14" lengthAdjust="spacing" textLength="59" x="290.75" y="65.7793">Program</text><line style="stroke:#181818;stroke-width:0.5;" x1="215" x2="393" y1="76.4883" y2="76.4883"/><line style="stroke:#181818;stroke-width:0.5;" x1="215" x2="393" y1="84.4883" y2="84.4883"/><text fill="#000000" font-family="sans-serif" font-size="14" lengthAdjust="spacing" text-decoration="underline" textLength="168" x="220" y="102.0234">Main(args:string[]) : void</text></g><!--MD5=[d0074d293e9645ff4ed5f25f47c5773b]
class GameWindow--><g id="elem_GameWindow"><rect fill="#F1F1F1" height="48" id="GameWindow" rx="2.5" ry="2.5" style="stroke:#181818;stroke-width:0.5;" width="125" x="53.5" y="52.4883"/><ellipse cx="68.5" cy="68.4883" fill="#ADD1B2" rx="11" ry="11" style="stroke:#181818;stroke-width:1.0;"/><path d="M70.9731,74.6313 Q70.3921,74.9302 69.7529,75.0796 Q69.1138,75.229 68.4082,75.229 Q65.9014,75.229 64.5815,73.5771 Q63.2617,71.9253 63.2617,68.8042 Q63.2617,65.6748 64.5815,64.0229 Q65.9014,62.3711 68.4082,62.3711 Q69.1138,62.3711 69.7612,62.5205 Q70.4087,62.6699 70.9731,62.9688 L70.9731,65.6914 Q70.3423,65.1104 69.7488,64.8406 Q69.1553,64.5708 68.5244,64.5708 Q67.1797,64.5708 66.4949,65.6375 Q65.8101,66.7041 65.8101,68.8042 Q65.8101,70.896 66.4949,71.9626 Q67.1797,73.0293 68.5244,73.0293 Q69.1553,73.0293 69.7488,72.7595 Q70.3423,72.4897 70.9731,71.9087 Z " fill="#000000"/><text fill="#000000" font-family="sans-serif" font-size="14" lengthAdjust="spacing" textLength="93" x="82.5" y="73.7793">GameWindow</text><line style="stroke:#181818;stroke-width:0.5;" x1="54.5" x2="177.5" y1="84.4883" y2="84.4883"/><line style="stroke:#181818;stroke-width:0.5;" x1="54.5" x2="177.5" y1="92.4883" y2="92.4883"/></g><!--MD5=[3c0e7ba23ee97378347dee0d1da8e8b4]
reverse link GameWindow to Mundo--><g id="link_GameWindow_Mundo"><path codeLine="7" d="M116,120.9549 C116,136.6207 116,153.9138 116,168.3624 " fill="none" id="GameWindow-backto-Mundo" style="stroke:#181818;stroke-width:1.0;"/><polygon fill="none" points="109.0001,120.6911,116,100.6911,123.0001,120.6911,109.0001,120.6911" style="stroke:#181818;stroke-width:1.0;"/></g><rect height="11.7773" style="stroke:#00000000;stroke-width:1.0;fill:none;" width="167" x="110" y="238.9766"/><text fill="#888888" font-family="sans-serif" font-size="10" lengthAdjust="spacing" textLength="62" x="110" y="248.6445">Grupo GCG -</text><a href="http://gcg.inf.furb.br" target="_top" title="http://gcg.inf.furb.br" xlink:actuate="onRequest" xlink:href="http://gcg.inf.furb.br" xlink:show="new" xlink:title="http://gcg.inf.furb.br" xlink:type="simple"><text fill="#0000FF" font-family="sans-serif" font-size="10" lengthAdjust="spacing" text-decoration="underline" textLength="102" x="175" y="248.6445">http://gcg.inf.furb.br</text></a><!--MD5=[e03e4ba6c50a61063101f0872550d2a5]
@startuml CG_N2_OpenTK_NAO_Usar_Classes

title Diagrama de Classes - CG_N2_OpenTK_NAO_Usar
footer Grupo GCG - [[http://gcg.inf.furb.br]]

!include ./plantuml/include.puml

@enduml

@startuml CG_N2_OpenTK_NAO_Usar_Classes

title Diagrama de Classes - CG_N2_OpenTK_NAO_Usar
footer Grupo GCG - [[http://gcg.inf.furb.br]]

class Mundo {
    + Mundo(width:int, height:int)
}
class Program {
    {static} Main(args:string[]) : void
}
GameWindow <|- - Mundo

@enduml

PlantUML version 1.2022.5(Sat Apr 30 07:55:52 BRT 2022)
(GPL source distribution)
Java Runtime: OpenJDK Runtime Environment
JVM: OpenJDK 64-Bit Server VM
Default Encoding: UTF-8
Language: en
Country: BR
--></g></svg>