<?xml version="1.0" encoding="UTF-8" standalone="no"?><svg xmlns="http://www.w3.org/2000/svg" xmlns:xlink="http://www.w3.org/1999/xlink" contentStyleType="text/css" height="202px" preserveAspectRatio="none" style="width:401px;height:202px;background:#FFFFFF;" version="1.1" viewBox="0 0 401 202" width="401px" zoomAndPan="magnify"><defs/><g><!--MD5=[919386ce46a6a5a7c71af782f732246a]
class Mundo--><g id="elem_Mundo"><rect codeLine="1" fill="#F1F1F1" height="64.4883" id="Mundo" rx="2.5" ry="2.5" style="stroke:#181818;stroke-width:0.5;" width="218" x="7" y="131"/><ellipse cx="87.75" cy="147" fill="#ADD1B2" rx="11" ry="11" style="stroke:#181818;stroke-width:1.0;"/><path d="M90.2231,153.1431 Q89.6421,153.4419 89.0029,153.5913 Q88.3638,153.7407 87.6582,153.7407 Q85.1514,153.7407 83.8315,152.0889 Q82.5117,150.437 82.5117,147.3159 Q82.5117,144.1865 83.8315,142.5347 Q85.1514,140.8828 87.6582,140.8828 Q88.3638,140.8828 89.0112,141.0322 Q89.6587,141.1816 90.2231,141.4805 L90.2231,144.2031 Q89.5923,143.6221 88.9988,143.3523 Q88.4053,143.0825 87.7744,143.0825 Q86.4297,143.0825 85.7449,144.1492 Q85.0601,145.2158 85.0601,147.3159 Q85.0601,149.4077 85.7449,150.4744 Q86.4297,151.541 87.7744,151.541 Q88.4053,151.541 88.9988,151.2712 Q89.5923,151.0015 90.2231,150.4204 Z " fill="#000000"/><text fill="#000000" font-family="sans-serif" font-size="14" lengthAdjust="spacing" textLength="48" x="108.25" y="152.291">Mundo</text><line style="stroke:#181818;stroke-width:0.5;" x1="8" x2="224" y1="163" y2="163"/><line style="stroke:#181818;stroke-width:0.5;" x1="8" x2="224" y1="171" y2="171"/><ellipse cx="18" cy="182" fill="#84BE84" rx="3" ry="3" style="stroke:#038048;stroke-width:1.0;"/><text fill="#000000" font-family="sans-serif" font-size="14" lengthAdjust="spacing" textLength="192" x="27" y="188.5352">Mundo(width:int, height:int)</text></g><!--MD5=[175f95e045c1a44aed0b30df3abe0e5c]
class Program--><g id="elem_Program"><rect codeLine="4" fill="#F1F1F1" height="64.4883" id="Program" rx="2.5" ry="2.5" style="stroke:#181818;stroke-width:0.5;" width="180" x="214" y="7"/><ellipse cx="270.25" cy="23" fill="#ADD1B2" rx="11" ry="11" style="stroke:#181818;stroke-width:1.0;"/><path d="M272.7231,29.1431 Q272.1421,29.4419 271.5029,29.5913 Q270.8638,29.7407 270.1582,29.7407 Q267.6514,29.7407 266.3315,28.0889 Q265.0117,26.437 265.0117,23.3159 Q265.0117,20.1865 266.3315,18.5347 Q267.6514,16.8828 270.1582,16.8828 Q270.8638,16.8828 271.5112,17.0322 Q272.1587,17.1816 272.7231,17.4805 L272.7231,20.2031 Q272.0923,19.6221 271.4988,19.3523 Q270.9053,19.0825 270.2744,19.0825 Q268.9297,19.0825 268.2449,20.1492 Q267.5601,21.2158 267.5601,23.3159 Q267.5601,25.4077 268.2449,26.4744 Q268.9297,27.541 270.2744,27.541 Q270.9053,27.541 271.4988,27.2712 Q272.0923,27.0015 272.7231,26.4204 Z " fill="#000000"/><text fill="#000000" font-family="sans-serif" font-size="14" lengthAdjust="spacing" textLength="59" x="290.75" y="28.291">Program</text><line style="stroke:#181818;stroke-width:0.5;" x1="215" x2="393" y1="39" y2="39"/><line style="stroke:#181818;stroke-width:0.5;" x1="215" x2="393" y1="47" y2="47"/><text fill="#000000" font-family="sans-serif" font-size="14" lengthAdjust="spacing" text-decoration="underline" textLength="168" x="220" y="64.5352">Main(args:string[]) : void</text></g><!--MD5=[d0074d293e9645ff4ed5f25f47c5773b]
class GameWindow--><g id="elem_GameWindow"><rect fill="#F1F1F1" height="48" id="GameWindow" rx="2.5" ry="2.5" style="stroke:#181818;stroke-width:0.5;" width="125" x="53.5" y="15"/><ellipse cx="68.5" cy="31" fill="#ADD1B2" rx="11" ry="11" style="stroke:#181818;stroke-width:1.0;"/><path d="M70.9731,37.1431 Q70.3921,37.4419 69.7529,37.5913 Q69.1138,37.7407 68.4082,37.7407 Q65.9014,37.7407 64.5815,36.0889 Q63.2617,34.437 63.2617,31.3159 Q63.2617,28.1865 64.5815,26.5347 Q65.9014,24.8828 68.4082,24.8828 Q69.1138,24.8828 69.7612,25.0322 Q70.4087,25.1816 70.9731,25.4805 L70.9731,28.2031 Q70.3423,27.6221 69.7488,27.3523 Q69.1553,27.0825 68.5244,27.0825 Q67.1797,27.0825 66.4949,28.1492 Q65.8101,29.2158 65.8101,31.3159 Q65.8101,33.4077 66.4949,34.4744 Q67.1797,35.541 68.5244,35.541 Q69.1553,35.541 69.7488,35.2712 Q70.3423,35.0015 70.9731,34.4204 Z " fill="#000000"/><text fill="#000000" font-family="sans-serif" font-size="14" lengthAdjust="spacing" textLength="93" x="82.5" y="36.291">GameWindow</text><line style="stroke:#181818;stroke-width:0.5;" x1="54.5" x2="177.5" y1="47" y2="47"/><line style="stroke:#181818;stroke-width:0.5;" x1="54.5" x2="177.5" y1="55" y2="55"/></g><!--MD5=[3c0e7ba23ee97378347dee0d1da8e8b4]
reverse link GameWindow to Mundo--><g id="link_GameWindow_Mundo"><path codeLine="7" d="M116,83.4666 C116,99.1324 116,116.4255 116,130.8741 " fill="none" id="GameWindow-backto-Mundo" style="stroke:#181818;stroke-width:1.0;"/><polygon fill="none" points="109.0001,83.2028,116,63.2028,123.0001,83.2028,109.0001,83.2028" style="stroke:#181818;stroke-width:1.0;"/></g><!--MD5=[3e51bc291eaef7063abff80fa4ebcf1e]
@startuml Program
!include ./Program.puml
@enduml

@startuml Program
class Mundo {
    + Mundo(width:int, height:int)
}
class Program {
    {static} Main(args:string[]) : void
}
GameWindow <|- - Mundo
@enduml

PlantUML version 1.2022.5(Sat Apr 30 07:55:52 BRT 2022)
(GPL source distribution)
Java Runtime: OpenJDK Runtime Environment
JVM: OpenJDK 64-Bit Server VM
Default Encoding: UTF-8
Language: en
Country: BR
--></g></svg>